<svg xmlns="http://www.w3.org/2000/svg" width="67.1535" height="42.834" viewBox="0 0 134.307 85.668">
  <g id="_1299501" data-name="1299501" transform="translate(-41.983 617.636) rotate(-3)">
    <path id="Tracé_40" data-name="Tracé 40" d="M78.262-607.678c-8.542,1.027-4.381,9.712,10.921,22.816,13.638,11.688,35.96,26.262,56.293,36.792,1.222.624,3.029,1.56,4.03,2.08,3.848,2,11.571,5.642,16.134,7.606,11.259,4.875,20.905,8.06,28,9.244a27.77,27.77,0,0,0,7.28.13,4.408,4.408,0,0,0,3.029-2.028,4.933,4.933,0,0,0-.156-3.705c-2.028-5.512-10.739-14.288-24.4-24.6-1.248-.936-2.288-1.677-2.3-1.651s-.26.923-.52,2-.507,2.067-.559,2.21c-.052.221.273.546,1.859,1.846,8.581,7.02,13.3,12.533,13.287,15.51-.013,2.535-3.458,3.12-9.8,1.677-13.391-3.042-37.949-14.86-59.8-28.758-17.811-11.337-31.085-22.439-33.958-28.42a4.571,4.571,0,0,1-.533-1.924c-.052-.858-.026-1,.273-1.456,1.677-2.522,9.569-1.261,21.828,3.5l1.4.533.806-.832c.455-.455,1.222-1.183,1.716-1.625l.884-.793-.754-.351c-.429-.182-2.015-.858-3.536-1.5C95.228-605.416,84.035-608.38,78.262-607.678Z" fill="#fff"/>
    <path id="Tracé_41" data-name="Tracé 41" d="M336.394-591.493a37.446,37.446,0,0,0-29.447,18.773,38.632,38.632,0,0,0-2.509,5.356l-.338.936.286.247c.494.442,5.356,4.069,8.281,6.149a268.467,268.467,0,0,0,53.94,29.915l1.079.442.325-.39a37.506,37.506,0,0,0,8.749-26.288,36.781,36.781,0,0,0-3.835-14.418,37.247,37.247,0,0,0-16.667-16.81,36.984,36.984,0,0,0-12.065-3.718A50.666,50.666,0,0,0,336.394-591.493Z" transform="translate(-200.278 -14.105)" fill="#fff"/>
    <path id="Tracé_42" data-name="Tracé 42" d="M288.581-341.8c-.039.1-.143,1.222-.221,2.47a37.585,37.585,0,0,0,9.66,27.458,37.332,37.332,0,0,0,37.9,10.765,37.834,37.834,0,0,0,11.6-5.616l.949-.715-1.95-.884a402.092,402.092,0,0,1-43.358-24.077c-5.85-3.809-11.311-7.423-13.261-8.789-.624-.442-1.157-.806-1.183-.806S288.633-341.909,288.581-341.8Z" transform="translate(-186.514 -231.226)" fill="#fff"/>
  </g>
</svg>
