<svg xmlns="http://www.w3.org/2000/svg" width="50.082" height="63.206" viewBox="0 0 50.082 63.206">
  <path id="arrow-bar-left" d="M48.773,63.36a2.227,2.227,0,0,1-2.227-2.227V3.227a2.227,2.227,0,0,1,4.454,0V61.133A2.227,2.227,0,0,1,48.773,63.36ZM37.637,32.18a2.227,2.227,0,0,1-2.227,2.227H9.607l9.563,9.559a2.23,2.23,0,1,1-3.154,3.154L2.653,33.757a2.227,2.227,0,0,1,0-3.154L16.016,17.24a2.23,2.23,0,0,1,3.154,3.154L9.607,29.953h25.8A2.227,2.227,0,0,1,37.637,32.18Z" transform="matrix(-1, -0.017, 0.017, -1, 50.975, 64.24)" fill="#fff" fill-rule="evenodd"/>
</svg>
