<svg xmlns="http://www.w3.org/2000/svg" width="60" height="50" viewBox="0 0 135.403 152.601">
  <g id="Groupe_22" data-name="Groupe 22" transform="translate(-1812.467 -7.869)">
    <g id="_1299501" data-name="1299501" transform="matrix(0.407, -0.914, 0.914, 0.407, 2342.759, 442.362)">
      <path id="Tracé_40" data-name="Tracé 40" d="M78.262-607.678c-8.542,1.027-4.381,9.712,10.921,22.816,13.638,11.688,35.96,26.262,56.293,36.792,1.222.624,3.029,1.56,4.03,2.08,3.848,2,11.571,5.642,16.134,7.606,11.259,4.875,20.905,8.06,28,9.244a27.77,27.77,0,0,0,7.28.13,4.408,4.408,0,0,0,3.029-2.028,4.933,4.933,0,0,0-.156-3.705c-2.028-5.512-10.739-14.288-24.4-24.6-1.248-.936-2.288-1.677-2.3-1.651s-.26.923-.52,2-.507,2.067-.559,2.21c-.052.221.273.546,1.859,1.846,8.581,7.02,13.3,12.533,13.287,15.51-.013,2.535-3.458,3.12-9.8,1.677-13.391-3.042-37.949-14.86-59.8-28.758-17.811-11.337-31.085-22.439-33.958-28.42a4.571,4.571,0,0,1-.533-1.924c-.052-.858-.026-1,.273-1.456,1.677-2.522,9.569-1.261,21.828,3.5l1.4.533.806-.832c.455-.455,1.222-1.183,1.716-1.625l.884-.793-.754-.351c-.429-.182-2.015-.858-3.536-1.5C95.228-605.416,84.035-608.38,78.262-607.678Z" fill="red" stroke="#000" stroke-width="1"/>
    </g>
    <g id="_1299501-2" data-name="1299501" transform="translate(1711.531 644.411) rotate(3)">
      <path id="Tracé_40-2" data-name="Tracé 40" d="M78.262-607.678c-8.542,1.027-4.381,9.712,10.921,22.816,13.638,11.688,35.96,26.262,56.293,36.792,1.222.624,3.029,1.56,4.03,2.08,3.848,2,11.571,5.642,16.134,7.606,11.259,4.875,20.905,8.06,28,9.244a27.77,27.77,0,0,0,7.28.13,4.408,4.408,0,0,0,3.029-2.028,4.933,4.933,0,0,0-.156-3.705c-2.028-5.512-10.739-14.288-24.4-24.6-1.248-.936-2.288-1.677-2.3-1.651s-.26.923-.52,2-.507,2.067-.559,2.21c-.052.221.273.546,1.859,1.846,8.581,7.02,13.3,12.533,13.287,15.51-.013,2.535-3.458,3.12-9.8,1.677-13.391-3.042-37.949-14.86-59.8-28.758-17.811-11.337-31.085-22.439-33.958-28.42a4.571,4.571,0,0,1-.533-1.924c-.052-.858-.026-1,.273-1.456,1.677-2.522,9.569-1.261,21.828,3.5l1.4.533.806-.832c.455-.455,1.222-1.183,1.716-1.625l.884-.793-.754-.351c-.429-.182-2.015-.858-3.536-1.5C95.228-605.416,84.035-608.38,78.262-607.678Z" fill="red" stroke="#0a0a0a" stroke-width="1"/>
    </g>
  </g>
</svg>
