<?xml version="1.0" encoding="UTF-8"?><svg id="Calque_2" xmlns="http://www.w3.org/2000/svg" xmlns:xlink="http://www.w3.org/1999/xlink" viewBox="0 0 174.98 164.3"><defs><style>.cls-1{font-family:Nasalization, Nasalization;}.cls-2{fill:#FFFFFF;font-size:47.52px;}.cls-3{stroke:#FFFFFF;stroke-miterlimit:10;}.cls-3,.cls-4{fill:none;}.cls-5{font-family:SpacelinePersonalUse, 'Spaceline Personal Use';}.cls-4{stroke:#FFFFFF;stroke-linecap:round;stroke-linejoin:round;stroke-width:4px;}.cls-6{fill:#FFFFFF;}</style></defs><g id="Calque_1-2"><g><g><circle class="cls-3" cx="85.94" cy="25.27" r="24.77"/><circle class="cls-3" cx="25.27" cy="139.03" r="24.77"/><circle class="cls-3" cx="149.71" cy="139.03" r="24.77"/><path class="cls-3" d="M124.94,139.03c0-13.68,11.09-24.77,24.77-24.77,.88,0,1.75,.05,2.6,.14,1.88-6.29,2.89-12.95,2.89-19.85,0-29.67-18.66-54.99-44.89-64.85-2.08,11.57-12.2,20.36-24.37,20.36s-22.29-8.78-24.37-20.36c-26.23,9.86-44.89,35.17-44.89,64.85,0,7.08,1.07,13.92,3.04,20.35,1.79-.41,3.64-.63,5.55-.63,13.68,0,24.77,11.09,24.77,24.77,0,4.58-1.25,8.86-3.41,12.54,11.17,7.71,24.71,12.23,39.31,12.23,15.59,0,29.97-5.15,41.54-13.84-1.63-3.3-2.54-7.01-2.54-10.94Z"/><path class="cls-4" d="M136.13,131.67l13.58-10.56,13.58,10.56v16.6c0,1.67-1.35,3.02-3.02,3.02h-21.13c-1.67,0-3.02-1.35-3.02-3.02v-16.6Z"/><polyline class="cls-4" points="145.18 149.86 145.18 134.77 154.24 134.77 154.24 149.86"/><g><path class="cls-6" d="M15.14,159.15c4.99,2.18,10.5,1.56,14.77-1.17-1.36-.07-2.7-.24-4.03-.48-1.52-.27-3.02-.65-4.49-1.11-2.95-.92-5.79-2.16-8.47-3.7-1.34-.77-2.63-1.62-3.87-2.54-1.08-.82-2.12-1.69-3.1-2.64,.9,4.99,4.19,9.46,9.19,11.64Z"/><path class="cls-6" d="M1.83,138.54c.57,2.96,2.67,5.69,4.77,7.75,2.6,2.54,5.74,4.61,8.98,6.24,5.21,2.62,11.33,4.45,17.21,4.15,2.23-.11,4.6-.57,6.51-1.77,.67-.42,1.31-.96,1.82-1.61,1.01-1.28,1.43-2.91,1.22-4.53-.25-1.94-1.24-3.68-2.45-5.18-.51-.63-1.04-1.2-1.57-1.72,.17,1.01,.25,2.04,.25,3.08,0,.21,0,.41-.02,.62,.11,.2,.22,.41,.33,.62,.62,1.28,1.13,2.87,.56,4.25-.39,.94-1.25,1.63-2.19,2.02-1.99,.84-4.35,.86-6.46,.69-6.02-.47-12-2.83-17.11-5.98-.58-.35-1.14-.73-1.69-1.11-2.68-1.87-5.53-4.26-6.82-7.34-.66-1.57-.63-3.29,.73-4.46,.89-.77,2.16-1.25,3.29-1.52,.86-.88,1.81-1.66,2.86-2.34-.22,0-.43-.02-.66-.02-2.08-.05-4.28,.19-6.16,1.17-1.38,.72-2.57,1.87-3.15,3.31-.46,1.16-.5,2.45-.27,3.68Z"/><path class="cls-6" d="M10.72,133.29c-.81,.74-1.54,1.57-2.17,2.47-.76,1.07-1.94,2.52-1.37,3.86,.32,.76,.91,1.38,1.48,1.95,4.1,4,9.3,6.74,14.73,8.56,3.35,1.13,6.85,1.94,10.37,1.79,.66-.03,1.38-.12,1.84-.59,.24-.25,.37-.56,.49-.88,1.97-5.08,1.05-11.16-2.32-15.43-3.37-4.27-9.08-6.58-14.47-5.84-2.85,.39-5.56,1.62-7.79,3.43-.28,.22-.54,.45-.8,.69Z"/><circle class="cls-6" cx="38.24" cy="126.09" r="4.38"/><circle class="cls-6" cx="24.55" cy="121.5" r="2.46"/></g><text class="cls-2" transform="translate(38.35 107.92)"><tspan class="cls-1" x="0" y="0">SA</tspan><tspan class="cls-5" x="62" y="0">-I</tspan></text></g><image width="200" height="200" transform="translate(62.92 2.25) scale(.23)" xlink:href="../11999-200.png"/></g></g></svg>