<?xml version="1.0" encoding="UTF-8"?><svg id="Calque_2" xmlns="http://www.w3.org/2000/svg" viewBox="0 0 209.42 196.62"  width="70" height="70" stroke="white"><defs><style>.cls-1{font-size:56.93px;}.cls-1,.cls-2,.cls-3{fill:none;}.cls-1,.cls-2,.cls-3,.cls-4{stroke:#white;}.cls-1,.cls-2,.cls-4{stroke-miterlimit:10;}.cls-5{font-family:Nasalization, Nasalization;}.cls-6{font-family:SpacelinePersonalUse, 'Spaceline Personal Use';}.cls-3{stroke-linecap:round;stroke-linejoin:round;stroke-width:2px;}.cls-4{fill:#white;}</style></defs><g id="Logo"><g><g><circle class="cls-2" cx="102.85" cy="30.18" r="29.68"/><circle class="cls-2" cx="30.18" cy="166.45" r="29.68"/><circle class="cls-2" cx="179.25" cy="166.45" r="29.68"/><path class="cls-2" d="M149.57,166.45c0-16.39,13.29-29.68,29.68-29.68,1.05,0,2.09,.06,3.11,.16,2.25-7.53,3.47-15.52,3.47-23.78,0-35.55-22.36-65.87-53.78-77.68-2.5,13.87-14.61,24.39-29.2,24.39s-26.7-10.52-29.2-24.39c-31.42,11.81-53.78,42.14-53.78,77.68,0,8.48,1.28,16.67,3.64,24.38,2.14-.49,4.36-.76,6.65-.76,16.39,0,29.68,13.29,29.68,29.68,0,5.48-1.49,10.62-4.09,15.02,13.38,9.24,29.6,14.65,47.09,14.65,18.67,0,35.9-6.17,49.76-16.58-1.95-3.95-3.05-8.4-3.05-13.1Z"/><g><path class="cls-4" d="M18.04,190.55c5.98,2.61,12.58,1.87,17.7-1.4-1.63-.08-3.24-.28-4.83-.57-1.82-.33-3.62-.78-5.38-1.33-3.53-1.11-6.94-2.59-10.15-4.43-1.6-.92-3.16-1.94-4.64-3.04-1.3-.98-2.54-2.02-3.71-3.16,1.08,5.98,5.02,11.33,11.01,13.94Z"/><path class="cls-4" d="M2.09,165.86c.68,3.54,3.2,6.82,5.72,9.28,3.12,3.04,6.88,5.52,10.76,7.47,6.25,3.14,13.57,5.33,20.62,4.97,2.67-.14,5.51-.68,7.8-2.12,.81-.5,1.56-1.15,2.18-1.93,1.21-1.54,1.71-3.49,1.46-5.42-.3-2.33-1.49-4.41-2.94-6.21-.61-.76-1.25-1.43-1.89-2.06,.21,1.21,.3,2.44,.29,3.69,0,.25-.01,.5-.02,.75,.14,.24,.27,.49,.39,.74,.74,1.53,1.35,3.44,.67,5.09-.46,1.13-1.5,1.95-2.62,2.42-2.38,1.01-5.21,1.03-7.74,.83-7.21-.56-14.38-3.39-20.49-7.16-.69-.42-1.36-.88-2.02-1.33-3.21-2.24-6.62-5.1-8.17-8.79-.78-1.88-.75-3.94,.87-5.35,1.06-.93,2.59-1.5,3.95-1.82,1.03-1.05,2.17-1.99,3.42-2.8-.26-.01-.52-.02-.78-.03-2.5-.06-5.13,.23-7.37,1.4-1.65,.86-3.08,2.24-3.77,3.97-.55,1.39-.6,2.94-.32,4.4Z"/><path class="cls-4" d="M12.74,159.57c-.97,.89-1.84,1.89-2.6,2.96-.91,1.28-2.32,3.02-1.64,4.62,.38,.91,1.08,1.65,1.78,2.33,4.91,4.79,11.15,8.07,17.65,10.26,4.01,1.35,8.2,2.32,12.43,2.15,.79-.03,1.65-.14,2.2-.71,.28-.29,.45-.67,.59-1.05,2.35-6.08,1.26-13.37-2.78-18.49-4.04-5.12-10.88-7.88-17.34-7-3.42,.46-6.66,1.94-9.33,4.11-.33,.27-.65,.54-.96,.82Z"/><circle class="cls-4" cx="45.71" cy="150.95" r="5.25"/><circle class="cls-4" cx="29.31" cy="145.45" r="2.95"/></g><text class="cls-1" transform="translate(45.84 129.19)"><tspan class="cls-5" x="0" y="0">SA</tspan><tspan class="cls-6" x="74.28" y="0">-I</tspan></text><g><polygon class="cls-2" points="121.78 24.92 117.18 19.14 117.76 24.49 121.78 24.92"/><polygon class="cls-2" points="110.01 17 110.01 17 110.01 17 109.86 17.25 116.87 18.75 116.33 18.07 110.89 14.72 110.15 16.79 110.01 17"/><polygon class="cls-2" points="85.79 20.21 85.6 20.49 86.15 19.86 85.79 20.21"/><polygon class="cls-2" points="82.03 25.88 81.87 26.65 82.9 24.57 82.03 25.88"/><polygon class="cls-2" points="101.76 12.75 101.76 13.48 101.96 13.55 110.01 17 110.01 17 110.89 14.72 109.8 14.05 101.94 12.53 100.34 12.99 100.81 13.16 101.76 12.75"/><polygon class="cls-2" points="80.59 32.82 80.59 38.68 80.97 31 80.59 32.82"/><path class="cls-2" d="M121.85,25.01l-.05-.06,.55,6.45c.47,1.07-2.05,10.14-2.05,10.14l1.5-8.81-5.33,1.24,3.19,6.93-7.63,2.58,3.96-9.42-9.56,1.12,5.06,8.12-10.86,1.34,4.88-9.48-10.59-.64,5.21,9.89-10.18-1.21,4.02-8.26-7.96-1.42,3.63,9.77-3.99-9.77-.05-.56-.08-.94,.72-7.99,4.92,.77,.15,.4,.09,.26,1.11-.85-1.08-.34,1.63-7.07,7.12,1.53-7.67,5.89,7.38,2.35-4.94,7,10.94,.38-5.07-7.37,8.34-1.9-2.79,8.89,9.58-.47-6.25-8.23,.28-.03-.47-.56-.25-.18-.32,.06-8.25,1.89,1.04-7.44,7.53,5.5,.67-.12-.07-7.12-8.1,.9v-4.67l-.95-.32-8.12,3.48-6.69,7.15-4.72,5.92-.17,2.66,3.74,1-2.27,7.27-1.99-1.95v.46l2.43,2.38,6.63,2.24,10.55,1.84,11.48-1.15,8.63-2.46,3.44-1.85,.4-9.47-2.28-5.66Zm.38,8.41l1.51,6.26-1.51-6.26Z"/><polygon class="cls-2" points="81.3 29.4 81.22 29.78 81.28 29.7 81.3 29.4"/><polygon class="cls-2" points="117.14 18.81 116.87 18.75 117.18 19.14 117.14 18.81"/><polygon class="cls-2" points="111.03 14.35 110.89 14.72 110.89 14.72 111.03 14.35"/><polygon class="cls-2" points="90.21 17.04 90.52 16.38 90.21 17.04 94.03 14.83 100.34 12.99 99.62 12.75 94.32 14.29 91.27 15.97 88.05 17.73 86.35 19.62 86.15 19.86 87.3 18.72 90.21 17.04"/><polygon class="cls-2" points="83.65 23.18 82.94 24.49 82.9 24.57 83.88 23.1 83.65 23.18"/><polygon class="cls-2" points="81.01 30.04 80.97 31 81.22 29.78 81.01 30.04"/><polygon class="cls-2" points="81.41 27.57 81.3 29.4 81.87 26.65 81.41 27.57"/><polygon class="cls-2" points="121.8 24.92 121.78 24.92 121.8 24.95 121.8 24.92"/><polygon class="cls-2" points="85.6 20.49 84.25 22.07 83.65 23.18 83.88 23.1 85.6 20.49"/><polygon class="cls-2" points="86 23.79 92.69 16.64 100.81 13.16 100.34 12.99 94.03 14.83 90.21 17.04 88.05 21.6 83.88 23.1 82.9 24.57 81.87 26.65 81.3 29.4 81.28 29.7 86 23.79"/><polygon class="cls-2" points="110.15 16.79 110.89 14.72 110.89 14.72 110.01 17 110.15 16.79"/><polygon class="cls-2" points="88.05 21.6 90.21 17.04 87.3 18.72 86.15 19.86 85.6 20.49 83.88 23.1 88.05 21.6"/><polygon class="cls-2" points="84.85 33.36 81.11 32.36 81.28 29.7 81.22 29.78 80.97 31 80.59 38.68 82.58 40.63 84.85 33.36"/><polygon class="cls-2" points="118.16 24.81 116.87 24.45 109.99 25.23 116.83 33.36 118.16 24.81"/><polygon class="cls-2" points="101.96 13.55 101.76 13.48 101.76 18.15 109.86 17.25 110.01 17 101.96 13.55"/><path class="cls-2" d="M109.93,24.37l-.67,.12,.25,.18,.47,.56,6.88-.78,1.29,.36-1.33,8.55-6.84-8.13-.28,.03,6.25,8.23-9.58,.47,2.79-8.89-8.34,1.9,5.07,7.37-10.94-.38,4.94-7-7.38-2.35-1.11,.85,3.14,8.64-8.33-1.06,.13-.94,4.82-6.45,.24-.19-.09-.26-.15-.4-4.92-.77-.72,7.99,.08,.94,.05,.56,3.99,9.77-3.63-9.77,7.96,1.42-4.02,8.26,10.18,1.21-5.21-9.89,10.59,.64-4.88,9.48,10.86-1.34-5.06-8.12,9.56-1.12-3.96,9.42,7.63-2.58-3.19-6.93,5.33-1.24-1.5,8.81s2.52-9.07,2.05-10.14l-.55-6.45-.02-.03-4.02-.43-.58-5.35-.31-.39-7.01-1.5,.07,7.12Zm-.07,.44l6.92-5.79-6.92,5.79Z"/><polygon class="cls-2" points="86.35 32.1 86.22 33.05 94.55 34.11 91.41 25.47 91.17 25.65 86.35 32.1"/><polygon class="cls-2" points="100.7 26.43 108.95 24.54 109.27 24.48 101.73 18.99 100.7 26.43"/><polygon class="cls-2" points="93.08 17.2 91.44 24.27 92.52 24.61 100.19 18.72 93.08 17.2"/><polygon class="cls-2" points="100.81 13.16 101.76 13.48 101.76 12.75 100.81 13.16"/></g></g><line class="cls-3" x1="162.9" y1="152.82" x2="197.37" y2="166.9"/><line class="cls-3" x1="165.3" y1="177.98" x2="198.13" y2="177.98"/><line class="cls-3" x1="192.11" y1="164.49" x2="192.11" y2="177.87"/><line class="cls-3" x1="167.64" y1="153.33" x2="167.64" y2="178.57"/><rect class="cls-3" x="177.28" y="167.5" width="5.71" height="9.88"/></g></g></svg>