<svg xmlns="http://www.w3.org/2000/svg" width="344.419" height="50.645" viewBox="0 0 344.419 79.645">
    <g id="Groupe_29" data-name="Groupe 29" transform="translate(-99 -1048.177)">
      <path id="Icon_simple-instagram" data-name="Icon simple-instagram" d="M36.512,0C26.593,0,25.355.046,21.46.219a26.923,26.923,0,0,0-8.863,1.7A17.88,17.88,0,0,0,6.128,6.128,17.815,17.815,0,0,0,1.917,12.6a26.845,26.845,0,0,0-1.7,8.863C.037,25.355,0,26.593,0,36.512S.046,47.67.219,51.564a26.94,26.94,0,0,0,1.7,8.863A17.906,17.906,0,0,0,6.128,66.9,17.855,17.855,0,0,0,12.6,71.108a26.957,26.957,0,0,0,8.863,1.7c3.895.183,5.133.219,15.052.219s11.158-.046,15.052-.219a27.019,27.019,0,0,0,8.863-1.7,18.66,18.66,0,0,0,10.68-10.68,26.94,26.94,0,0,0,1.7-8.863c.183-3.895.219-5.133.219-15.052s-.046-11.158-.219-15.052a27,27,0,0,0-1.7-8.863A17.92,17.92,0,0,0,66.9,6.128a17.79,17.79,0,0,0-6.469-4.211,26.861,26.861,0,0,0-8.863-1.7C47.67.037,46.431,0,36.512,0Zm0,6.572c9.746,0,10.908.049,14.757.216a20.117,20.117,0,0,1,6.776,1.263,12.015,12.015,0,0,1,6.931,6.928,20.159,20.159,0,0,1,1.257,6.776c.173,3.852.213,5.008.213,14.757S66.4,47.42,66.221,51.269a20.548,20.548,0,0,1-1.281,6.776,11.593,11.593,0,0,1-2.735,4.2,11.391,11.391,0,0,1-4.2,2.726,20.307,20.307,0,0,1-6.8,1.257c-3.876.173-5.017.213-14.784.213S25.51,66.4,21.637,66.221a20.7,20.7,0,0,1-6.8-1.281,11.307,11.307,0,0,1-4.2-2.735,11.087,11.087,0,0,1-2.738-4.2,20.721,20.721,0,0,1-1.278-6.8c-.137-3.834-.186-5.017-.186-14.739s.049-10.911.186-14.79a20.7,20.7,0,0,1,1.278-6.8,10.823,10.823,0,0,1,2.738-4.2,10.8,10.8,0,0,1,4.2-2.732,20.209,20.209,0,0,1,6.758-1.281c3.879-.137,5.02-.183,14.784-.183l.137.091Zm0,11.191A18.749,18.749,0,1,0,55.261,36.512,18.748,18.748,0,0,0,36.512,17.763Zm0,30.92A12.171,12.171,0,1,1,48.683,36.512,12.167,12.167,0,0,1,36.512,48.683ZM60.385,17.024A4.381,4.381,0,1,1,56,12.645,4.385,4.385,0,0,1,60.385,17.024Z" transform="translate(99 1054.798)" fill="#fff"/>
      <path id="Icon_feather-twitter" data-name="Icon feather-twitter" d="M88.9,4.525A43.3,43.3,0,0,1,76.423,10.6,17.8,17.8,0,0,0,45.2,22.521v3.973A42.348,42.348,0,0,1,9.445,8.5S-6.445,44.251,29.308,60.142A46.241,46.241,0,0,1,1.5,68.087c35.753,19.863,79.452,0,79.452-45.685a17.876,17.876,0,0,0-.318-3.3A30.668,30.668,0,0,0,88.9,4.525Z" transform="translate(216.615 1050.314)" fill="none" stroke="#fff" stroke-linecap="round" stroke-linejoin="round" stroke-width="3"/>
      <path id="Icon_awesome-facebook-square" data-name="Icon awesome-facebook-square" d="M81.979,2.25H9.838C4.4,2.25,0,6.071,0,10.783V73.362C0,78.074,4.4,81.9,9.838,81.9H37.967V54.817H25.055V42.073H37.967V32.359c0-11.049,7.583-17.152,19.2-17.152a89.839,89.839,0,0,1,11.379.86V26.912H62.134c-6.314,0-8.284,3.4-8.284,6.885v8.276h14.1L65.692,54.817H53.85V81.9H81.979c5.433,0,9.838-3.821,9.838-8.533V10.783C91.817,6.071,87.412,2.25,81.979,2.25Z" transform="translate(351.603 1045.927)" fill="#fff"/>
    </g>
  </svg>
  